<svg width="34" height="33" viewBox="0 0 34 33" fill="none" xmlns="http://www.w3.org/2000/svg">
<path d="M18.7778 32H29.9349C30.5568 32 30.9865 31.3837 30.7661 30.8078L29.8815 28.4957C29.4168 27.281 29.6711 25.9154 30.4206 24.8494C31.5468 23.2476 33 20.7627 33 18.6059M27.6667 14.2045C27.6667 21.4972 21.6971 27.4091 14.3333 27.4091H2.28734C1.66543 27.4091 1.23577 26.7928 1.45612 26.2169L2.59576 23.238C3.00327 22.1729 2.83593 20.9917 2.33335 19.9672C1.47913 18.2258 1 16.2706 1 14.2045C1 6.91187 6.96954 1 14.3333 1C21.6971 1 27.6667 6.91187 27.6667 14.2045Z" stroke="black" stroke-width="1.5" stroke-linecap="round"/>
</svg>
