<svg width="29" height="33" viewBox="0 0 29 33" fill="none" xmlns="http://www.w3.org/2000/svg">
<path d="M14.5693 6.39545C14.9834 6.38547 15.311 6.04169 15.301 5.6276C15.291 5.21351 14.9472 4.88591 14.5331 4.89589L14.5693 6.39545ZM3.84487 16.8665H4.59487C4.59487 16.8607 4.5948 16.8549 4.59467 16.8492L3.84487 16.8665ZM3.84487 21.3544L3.88299 22.1034C4.28187 22.0831 4.59487 21.7538 4.59487 21.3544H3.84487ZM3.84487 27.3396L3.80676 28.0886C3.81945 28.0893 3.83216 28.0896 3.84487 28.0896L3.84487 27.3396ZM10.0311 28.0896C10.4453 28.0896 10.7811 27.7538 10.7811 27.3396C10.7811 26.9254 10.4453 26.5896 10.0311 26.5896V28.0896ZM13.797 5.64869C13.797 6.06291 14.1328 6.39869 14.547 6.39869C14.9612 6.39869 15.297 6.06291 15.297 5.64869H13.797ZM15.297 1C15.297 0.585786 14.9612 0.25 14.547 0.25C14.1328 0.25 13.797 0.585786 13.797 1H15.297ZM14.5651 4.89589C14.151 4.88591 13.8072 5.21351 13.7972 5.6276C13.7872 6.04169 14.1148 6.38547 14.5289 6.39545L14.5651 4.89589ZM25.2533 16.8665L24.5035 16.8492C24.5034 16.8549 24.5033 16.8607 24.5033 16.8665L25.2533 16.8665ZM25.2533 21.3544H24.5033C24.5033 21.7538 24.8163 22.0831 25.2152 22.1034L25.2533 21.3544ZM25.2533 27.3396V28.0896C25.266 28.0896 25.2787 28.0893 25.2914 28.0886L25.2533 27.3396ZM19.067 26.5896C18.6528 26.5896 18.317 26.9254 18.317 27.3396C18.317 27.7538 18.6528 28.0896 19.067 28.0896V26.5896ZM10.7864 27.3484C10.7879 26.9342 10.4534 26.5972 10.0391 26.5956C9.62494 26.5941 9.28792 26.9287 9.28641 27.3429L10.7864 27.3484ZM11.3597 30.6385L11.9005 30.1188L11.8992 30.1175L11.3597 30.6385ZM17.7532 30.6385L17.2137 30.1175L17.2124 30.1188L17.7532 30.6385ZM19.8265 27.3429C19.825 26.9287 19.488 26.5941 19.0738 26.5956C18.6596 26.5972 18.325 26.9342 18.3265 27.3484L19.8265 27.3429ZM10.0212 26.5956C9.60702 26.5956 9.27123 26.9314 9.27123 27.3456C9.27123 27.7598 9.60702 28.0956 10.0212 28.0956V26.5956ZM19.0652 28.0956C19.4794 28.0956 19.8152 27.7598 19.8152 27.3456C19.8152 26.9314 19.4794 26.5956 19.0652 26.5956V28.0956ZM14.5512 5.64567L14.5331 4.89589C8.06509 5.05176 2.94583 10.4167 3.09507 16.8838L3.84487 16.8665L4.59467 16.8492C4.46453 11.2101 8.92846 6.53139 14.5693 6.39545L14.5512 5.64567ZM3.84487 16.8665H3.09487V21.3544H3.84487H4.59487V16.8665H3.84487ZM3.84487 21.3544L3.80676 20.6054C1.81399 20.7068 0.25 22.3517 0.25 24.347H1H1.75C1.75 23.1508 2.68766 22.1642 3.88299 22.1034L3.84487 21.3544ZM1 24.347H0.25C0.25 26.3422 1.81399 27.9872 3.80676 28.0886L3.84487 27.3396L3.88299 26.5905C2.68766 26.5297 1.75 25.5431 1.75 24.347H1ZM3.84487 27.3396V28.0896H10.0311V27.3396V26.5896H3.84487V27.3396ZM14.547 5.64869H15.297V1H14.547H13.797V5.64869H14.547ZM14.547 5.64567L14.5289 6.39545C20.1697 6.53139 24.6336 11.2101 24.5035 16.8492L25.2533 16.8665L26.0031 16.8838C26.1524 10.4167 21.0331 5.05176 14.5651 4.89589L14.547 5.64567ZM25.2533 16.8665H24.5033V21.3544H25.2533H26.0033V16.8665H25.2533ZM25.2533 21.3544L25.2152 22.1034C26.4105 22.1642 27.3482 23.1508 27.3482 24.347H28.0982H28.8482C28.8482 22.3517 27.2842 20.7068 25.2914 20.6054L25.2533 21.3544ZM28.0982 24.347H27.3482C27.3482 25.5431 26.4105 26.5297 25.2152 26.5905L25.2533 27.3396L25.2914 28.0886C27.2842 27.9872 28.8482 26.3422 28.8482 24.347H28.0982ZM25.2533 27.3396V26.5896H19.067V27.3396V28.0896H25.2533V27.3396ZM10.0364 27.3456L9.28641 27.3429C9.2812 28.7662 9.83144 30.1354 10.8201 31.1594L11.3597 30.6385L11.8992 30.1175C11.1818 29.3745 10.7826 28.381 10.7864 27.3484L10.0364 27.3456ZM11.3597 30.6385L10.8189 31.1581C11.7962 32.1752 13.1459 32.75 14.5565 32.75V32V31.25C13.554 31.25 12.5949 30.8415 11.9005 30.1188L11.3597 30.6385ZM14.5565 32V32.75C15.9671 32.75 17.3168 32.1752 18.294 31.1581L17.7532 30.6385L17.2124 30.1188C16.518 30.8415 15.5589 31.25 14.5565 31.25V32ZM17.7532 30.6385L18.2928 31.1594C19.2815 30.1354 19.8317 28.7662 19.8265 27.3429L19.0765 27.3456L18.3265 27.3484C18.3303 28.381 17.9311 29.3745 17.2137 30.1175L17.7532 30.6385ZM10.0212 27.3456V28.0956H19.0652V27.3456V26.5956H10.0212V27.3456Z" fill="white"/>
</svg>
