<svg width="33" height="29" viewBox="0 0 33 29" fill="none" xmlns="http://www.w3.org/2000/svg">
<path d="M31.4623 17.8954C31.751 18.1923 32.2258 18.199 32.5228 17.9103C32.8198 17.6216 32.8265 17.1467 32.5377 16.8497L31.4623 17.8954ZM16.5 1.42969L17.0377 0.906879C16.8965 0.761634 16.7026 0.679688 16.5 0.679688C16.2974 0.679688 16.1035 0.761634 15.9623 0.906879L16.5 1.42969ZM0.462255 16.8497C0.173516 17.1467 0.180204 17.6216 0.477193 17.9103C0.774182 18.199 1.24901 18.1923 1.53775 17.8954L0.462255 16.8497ZM28.8847 28.5239C29.1734 28.8209 29.6482 28.8276 29.9452 28.5389C30.2422 28.2501 30.2489 27.7753 29.9602 27.4783L28.8847 28.5239ZM16.5065 14.7154L17.0443 14.1926C16.9031 14.0474 16.7091 13.9654 16.5065 13.9654C16.3039 13.9654 16.11 14.0474 15.9687 14.1926L16.5065 14.7154ZM3.05281 27.4783C2.76408 27.7753 2.77078 28.2501 3.06778 28.5389C3.36478 28.8276 3.83961 28.8209 4.12834 28.5239L3.05281 27.4783ZM32 17.3725L32.5377 16.8497L17.0377 0.906879L16.5 1.42969L15.9623 1.9525L31.4623 17.8954L32 17.3725ZM16.5 1.42969L15.9623 0.906879L0.462255 16.8497L1 17.3725L1.53775 17.8954L17.0377 1.9525L16.5 1.42969ZM29.4224 28.0011L29.9602 27.4783L17.0443 14.1926L16.5065 14.7154L15.9687 15.2382L28.8847 28.5239L29.4224 28.0011ZM16.5065 14.7154L15.9687 14.1926L3.05281 27.4783L3.59058 28.0011L4.12834 28.5239L17.0443 15.2382L16.5065 14.7154Z" fill="white"/>
</svg>
