<svg width="56" height="33" viewBox="0 0 56 33" fill="none" xmlns="http://www.w3.org/2000/svg">
<path d="M39.75 0.5C39.4739 0.5 39.25 0.723858 39.25 1C39.25 1.27614 39.4739 1.5 39.75 1.5V0.5ZM55.25 1.5C55.5261 1.5 55.75 1.27614 55.75 1C55.75 0.723858 55.5261 0.5 55.25 0.5V1.5ZM55.75 1C55.75 0.723858 55.5261 0.5 55.25 0.5C54.9739 0.5 54.75 0.723858 54.75 1H55.75ZM54.75 16.5C54.75 16.7761 54.9739 17 55.25 17C55.5261 17 55.75 16.7761 55.75 16.5H54.75ZM55.6036 1.35355C55.7988 1.15829 55.7988 0.841709 55.6036 0.646447C55.4083 0.451184 55.0917 0.451184 54.8964 0.646447L55.6036 1.35355ZM28.125 28.125L27.7714 28.4786C27.9667 28.6738 28.2833 28.6738 28.4786 28.4786L28.125 28.125ZM16.5 16.5L16.8536 16.1464C16.6583 15.9512 16.3417 15.9512 16.1464 16.1464L16.5 16.5ZM0.646447 31.6464C0.451184 31.8417 0.451184 32.1583 0.646447 32.3536C0.841709 32.5488 1.15829 32.5488 1.35355 32.3536L0.646447 31.6464ZM39.75 1V1.5H55.25V1V0.5H39.75V1ZM55.25 1H54.75V16.5H55.25H55.75V1H55.25ZM55.25 1L54.8964 0.646447L27.7714 27.7714L28.125 28.125L28.4786 28.4786L55.6036 1.35355L55.25 1ZM28.125 28.125L28.4786 27.7714L16.8536 16.1464L16.5 16.5L16.1464 16.8536L27.7714 28.4786L28.125 28.125ZM16.5 16.5L16.1464 16.1464L0.646447 31.6464L1 32L1.35355 32.3536L16.8536 16.8536L16.5 16.5Z" fill="white"/>
</svg>
